<?xml version="1.0" encoding="UTF-8"?>
<svg width="1200pt" height="1200pt" version="1.1" viewBox="0 0 1200 1200" xmlns="http://www.w3.org/2000/svg">
  <path d="m295.18 632.29-48.75-20.531-3.2344 52.781c-13.078 213.56 225.52 383.02 284.34 421.45l5.7656 76.453h133.31l9.2344-122.58c91.594-72.609 230.86-211.03 220.78-375.42l-3.2344-52.781-48.75 20.531c-2.9531 1.2188-72.656 30.609-111.47 51.797-10.781 5.9062-21.469 12.047-31.969 18.656l2.0625-26.859c74.438-32.203 126.71-100.88 136.82-181.45l50.391-388.4h-79.594c-18.141 0-35.906 1.8281-53.484 4.6406-38.859-46.219-96.047-73.172-157.5-73.172s-118.55 26.953-157.36 73.219c-17.578-2.8594-35.438-4.6875-53.625-4.6875h-79.594l50.016 388.4c10.547 80.812 63.234 150.1 137.16 181.78l5.9531 79.219c-28.781-31.828-61.828-52.781-96.047-71.391-38.859-21.094-108.47-50.531-111.47-51.75zm289.13 208.36-11.062-146.63c5.0625 0.32812 10.031 1.3594 15.094 1.3594h22.969c5.25 0 10.219-1.0781 15.422-1.4062l-6.2812 81.891c-13.406 18.141-25.594 39.328-36.141 64.781zm184.82-90.75c13.266-7.2188 31.078-15.75 48.281-23.672-23.109 109.41-124.55 204.84-192.84 258.37 23.344-168.66 87.328-203.53 144.61-234.71zm36.094-568.82-39.469 303.84c-5.3438 42.703-28.266 80.484-62.391 105.33h-148.74v-152.9c0-8.3906 0.42188-16.734 1.2188-24.938 5.5312-57.703 30.281-111.38 71.156-153.32 47.156-48.938 110.25-76.5 178.22-78zm-205.22-68.578c26.906 0 51.984 8.9062 73.359 23.531-26.203 12-50.906 27.281-73.406 46.078-22.547-18.703-47.203-33.984-73.359-45.984 21.375-14.719 46.5-23.672 73.406-23.672zm-98.719 207.32c-2.2031 5.8125-4.2656 11.625-6.1406 17.531-1.1719 3.7031-2.25 7.4062-3.2812 11.156-1.6406 5.9062-3.0938 11.906-4.4062 17.953-0.79688 3.6562-1.5938 7.3594-2.2969 11.109-1.2188 6.6562-2.1094 13.312-2.9062 20.016-0.375 3.1875-0.89062 6.375-1.1719 9.5625-0.89062 9.9844-1.4062 19.969-1.4062 30.094v138.94c-24.656-24.094-41.156-56.156-45.75-91.453l-39.094-303.71c56.25 1.2188 109.36 20.531 152.95 55.078-4.0781 5.3438-7.7812 10.828-11.531 16.359-1.125 1.6875-2.3906 3.2812-3.4688 4.9688-5.3438 8.25-10.312 16.734-14.906 25.406-1.3125 2.5312-2.4375 5.1094-3.6562 7.5938-3.0938 6.2812-6.0938 12.609-8.8125 19.031-1.4062 3.4219-2.6719 6.8438-3.9844 10.266zm14.062 664.97c-68.344-53.484-169.92-148.87-192.94-258.52 17.156 7.875 35.062 16.406 48.281 23.625 57.281 31.219 121.26 66.141 144.61 234.89z" fill="#EF5A45"/>
</svg>
